<?xml version="1.0" encoding="utf-8"?>
<!-- Generator: Adobe Illustrator 16.0.3, SVG Export Plug-In . SVG Version: 6.00 Build 0)  -->
<!DOCTYPE svg PUBLIC "-//W3C//DTD SVG 1.1//EN" "http://www.w3.org/Graphics/SVG/1.1/DTD/svg11.dtd">
<svg version="1.1" xmlns="http://www.w3.org/2000/svg" xmlns:xlink="http://www.w3.org/1999/xlink" x="0px" y="0px" width="1024px"
	 height="65px" viewBox="0 0 1024 65" enable-background="new 0 0 1024 65" xml:space="preserve">
<g id="bg">
</g>
<g id="text">
</g>
<g id="menu">
	<g>
		<path d="M779.645,21.59H772.1v19.959h-0.769V21.59h-7.545v-0.769h15.858V21.59z"/>
		<path d="M782.663,21.334c0-0.218,0.075-0.405,0.228-0.562c0.151-0.157,0.337-0.235,0.555-0.235c0.219,0,0.406,0.078,0.563,0.235
			c0.157,0.157,0.235,0.344,0.235,0.562c0,0.219-0.078,0.404-0.235,0.556c-0.156,0.152-0.344,0.228-0.563,0.228
			c-0.218,0-0.403-0.076-0.555-0.228C782.738,21.738,782.663,21.553,782.663,21.334z M783.83,41.549h-0.769V26.146h0.769V41.549z"/>
		<path d="M799.902,41.549h-0.769v-10.34c-0.01-1.545-0.349-2.695-1.018-3.449s-1.734-1.131-3.196-1.131
			c-1.689,0-3.07,0.745-4.143,2.233c-0.636,0.892-1.059,1.877-1.267,2.958v9.728h-0.783V26.146h0.783v3.645
			c0.521-1.253,1.267-2.221,2.234-2.904c0.969-0.683,2.041-1.025,3.218-1.025c1.291,0,2.347,0.285,3.168,0.854
			c0.82,0.569,1.359,1.5,1.615,2.791c0.456-1.11,1.196-1.996,2.221-2.655c1.025-0.66,2.174-0.989,3.445-0.989
			c1.661,0,2.897,0.47,3.708,1.409c0.812,0.939,1.223,2.349,1.231,4.228v10.051h-0.769v-9.984c0-1.688-0.339-2.937-1.018-3.748
			c-0.679-0.811-1.744-1.206-3.196-1.188c-1.869,0.029-3.35,0.773-4.441,2.233c-0.626,0.844-0.968,1.659-1.025,2.446V41.549z"/>
		<path d="M837.172,41.549h-0.769V31.271h-13.239v10.278h-0.769V20.822h0.769v9.68h13.239v-9.68h0.769V41.549z"/>
		<path d="M842.255,21.334c0-0.218,0.075-0.405,0.228-0.562c0.151-0.157,0.337-0.235,0.555-0.235c0.219,0,0.406,0.078,0.563,0.235
			c0.157,0.157,0.235,0.344,0.235,0.562c0,0.219-0.078,0.404-0.235,0.556c-0.156,0.152-0.344,0.228-0.563,0.228
			c-0.218,0-0.403-0.076-0.555-0.228C842.33,21.738,842.255,21.553,842.255,21.334z M843.422,41.549h-0.769V26.146h0.769V41.549z"/>
		<path d="M849.43,41.549h-0.769V19.683h0.769V41.549z"/>
		<path d="M855.253,29.733c0.503-1.196,1.243-2.14,2.221-2.833c0.978-0.692,2.059-1.039,3.245-1.039
			c1.651,0,2.878,0.467,3.681,1.402c0.802,0.935,1.207,2.347,1.217,4.235v10.051h-0.769V31.48c-0.01-1.65-0.347-2.871-1.011-3.663
			c-0.664-0.792-1.718-1.188-3.16-1.188c-1.329,0-2.479,0.472-3.452,1.415c-0.974,0.944-1.631,2.16-1.972,3.648v9.856h-0.77V19.683
			h0.77V29.733z"/>
		<path d="M869.274,33.549c0-1.471,0.282-2.792,0.847-3.965c0.564-1.172,1.362-2.085,2.392-2.74c1.03-0.655,2.195-0.982,3.495-0.982
			c1.291,0,2.449,0.318,3.474,0.954c1.025,0.636,1.824,1.538,2.398,2.705s0.866,2.482,0.876,3.943v0.683
			c0,1.48-0.28,2.805-0.84,3.972c-0.561,1.167-1.354,2.078-2.385,2.733c-1.029,0.655-2.194,0.982-3.495,0.982
			c-1.3,0-2.465-0.322-3.494-0.968c-1.03-0.646-1.83-1.549-2.399-2.712c-0.569-1.162-0.858-2.47-0.868-3.922V33.549z
			 M870.043,34.146c0,1.281,0.254,2.456,0.762,3.523c0.508,1.068,1.215,1.9,2.121,2.499c0.906,0.598,1.943,0.897,3.11,0.897
			c1.756,0,3.187-0.66,4.293-1.979c1.105-1.319,1.658-3.018,1.658-5.096v-0.441c0-1.262-0.257-2.43-0.769-3.502
			c-0.513-1.073-1.223-1.91-2.129-2.513s-1.934-0.904-3.082-0.904c-1.756,0-3.188,0.669-4.299,2.007
			c-1.11,1.338-1.666,3.023-1.666,5.054V34.146z"/>
		<path d="M893.276,26.715l-0.997-0.085c-1.31,0-2.405,0.424-3.288,1.273s-1.462,2.036-1.736,3.563v10.084h-0.77V26.146h0.77v3.203
			c0.417-1.072,1.043-1.922,1.879-2.548c0.835-0.626,1.884-0.939,3.146-0.939c0.446,0,0.807,0.053,1.082,0.16L893.276,26.715z"/>
		<path d="M905.733,37.777c0-1.87-1.595-3.141-4.783-3.815c-1.918-0.408-3.251-0.932-4.001-1.573s-1.124-1.521-1.124-2.641
			c0-1.129,0.477-2.059,1.431-2.79c0.953-0.731,2.194-1.096,3.723-1.096c1.66,0,2.994,0.396,4,1.188
			c1.006,0.792,1.509,1.863,1.509,3.21h-0.783c0-1.034-0.437-1.898-1.31-2.591s-2.012-1.04-3.416-1.04
			c-1.348,0-2.416,0.294-3.203,0.883c-0.788,0.588-1.182,1.324-1.182,2.207c0,0.693,0.146,1.236,0.441,1.63
			c0.294,0.394,0.773,0.75,1.438,1.068s1.632,0.624,2.904,0.918c1.271,0.294,2.277,0.641,3.018,1.04
			c0.74,0.398,1.276,0.871,1.609,1.417c0.332,0.546,0.498,1.212,0.498,2c0,1.215-0.498,2.192-1.495,2.933
			c-0.996,0.74-2.302,1.11-3.915,1.11c-1.728,0-3.12-0.392-4.178-1.174c-1.059-0.783-1.588-1.792-1.588-3.025h0.77
			c0.075,1.082,0.553,1.924,1.431,2.527c0.877,0.603,2.066,0.904,3.565,0.904c1.376,0,2.494-0.32,3.353-0.961
			C905.304,39.464,905.733,38.688,905.733,37.777z"/>
		<path d="M912.466,21.989v4.157h3.502v0.769h-3.502v10.944c0,1.093,0.178,1.9,0.534,2.423c0.355,0.522,0.951,0.784,1.786,0.784
			c0.418,0,0.926-0.043,1.523-0.128l0.128,0.726c-0.313,0.114-0.849,0.171-1.608,0.171c-1.12,0-1.922-0.311-2.405-0.933
			c-0.484-0.623-0.731-1.604-0.741-2.943V26.915h-2.847v-0.769h2.847v-4.157H912.466z"/>
	</g>
	<g>
		<polygon fill-rule="evenodd" clip-rule="evenodd" points="934.001,45.55 950.667,23.529 959.001,37.029 977.334,12.863 
			990.001,35.529 993.334,29.206 1003.334,49.196 993.75,37.029 988.667,43.529 978.001,22.196 958.334,43.863 950.75,31.389 		"/>
		<polygon fill-rule="evenodd" clip-rule="evenodd" points="969.482,31.58 970.875,33.279 972.5,31.592 975.25,33.279 977.5,31.029 
			979.25,31.592 980.75,29.904 981.875,32.279 982.698,31.592 981.969,31.873 980.688,29.498 979.219,31.217 977.438,30.623 
			975.162,32.873 972.5,31.029 970.813,32.779 		"/>
	</g>
</g>
</svg>
