<?xml version="1.0" encoding="utf-8"?>
<!-- Generator: Adobe Illustrator 21.0.2, SVG Export Plug-In . SVG Version: 6.00 Build 0)  -->
<svg version="1.1" id="Layer_1" xmlns="http://www.w3.org/2000/svg" xmlns:xlink="http://www.w3.org/1999/xlink" x="0px" y="0px"
	 viewBox="0 0 250 250" style="enable-background:new 0 0 250 250;" xml:space="preserve">
<style type="text/css">
	.st0{fill:#FFFFFF;}
	.st1{opacity:0.2;fill:#FFFFFF;enable-background:new    ;}
	.st2{opacity:0.6;fill:#FFFFFF;enable-background:new    ;}
</style>
<g>
	<polygon class="st0" points="8.2,160 63.7,86.7 91.4,131.6 152.5,51.2 194.6,126.6 205.7,105.6 239,172.1 207.1,131.6 190.2,153.3 
		154.7,82.2 89.2,154.4 64,112.9 	"/>
	<polygon class="st1" points="8,160 47.6,126.7 62,129 72.4,126.7 89,154 122.1,118.1 138,113 148,115 163,112 172.1,117.2 190,153 
		207,132 239,172 208,154 190,153 157,145 113,146 89,154 65,147 42,156 	"/>
	<polygon class="st2" points="122,118 138,113 148,115 163,112 172,117 155,82 	"/>
	<polygon class="st2" points="48,127 62,129 72,127 64,113 	"/>
</g>
</svg>
